<?xml version="1.0" encoding="utf-8"?>
<!-- Generator: Adobe Illustrator 16.0.0, SVG Export Plug-In . SVG Version: 6.00 Build 0)  -->
<!DOCTYPE svg PUBLIC "-//W3C//DTD SVG 1.1//EN" "http://www.w3.org/Graphics/SVG/1.1/DTD/svg11.dtd">
<svg version="1.1" id="Layer_1" xmlns="http://www.w3.org/2000/svg" xmlns:xlink="http://www.w3.org/1999/xlink" x="0px" y="0px"
	 width="124.035px" height="46px" viewBox="0 0 124.035 46" enable-background="new 0 0 124.035 46" xml:space="preserve">
<path fill="#CC0000" d="M0,0v18.763l9.221-9.168L0,0z"/>
<path fill="#CC0000" d="M28.89,9.594l9.222,9.222V0L28.89,9.594z"/>
<path fill="#CC0000" d="M1.279,20.735L18.496,46l-8.263-34.22L1.279,20.735z"/>
<path fill="#CC0000" d="M19.668,46l17.217-25.265L27.93,11.78L19.668,46z"/>
<path fill="#CC0000" d="M25.905,11.407h-6.822h-6.823l3.412,14.817l3.411,14.818l3.412-14.818L25.905,11.407z"/>
<path fill="#FFFFFF" d="M59.912,11.46c5.276,0,7.995,2.505,7.303,7.249L67,20.361c-0.426,2.825-1.865,4.745-3.892,5.811l2.507,7.676
	h-6.823l-1.706-6.504H55.54l-0.959,6.504h-6.396l3.306-22.333h8.421L59.912,11.46L59.912,11.46z M57.14,16.311l-0.906,6.343h1.973
	c0.586,0.054,1.173-0.16,1.651-0.586c0.428-0.373,0.747-0.959,0.747-1.546l0.32-2.132c0.16-1.279-0.48-2.079-1.759-2.079H57.14z"/>
<path fill="#FFFFFF" d="M70.678,11.46h14.339l-0.746,5.17h-7.941l-0.533,3.465h7.623l-0.746,5.063H75.05l-1.279,8.689h-6.396
	L70.678,11.46z"/>
<path fill="#FFFFFF" d="M86.137,18.656c0.746-4.904,4.264-7.516,9.86-7.516c5.544,0,8.368,2.665,7.622,7.516l-1.173,7.941
	c-0.745,4.904-4.317,7.517-9.86,7.517s-8.315-2.611-7.623-7.517L86.137,18.656z M91.574,25.158
	c-0.268,1.973-0.479,4.158,1.651,4.158s2.612-2.187,2.878-4.158l0.746-5.117c0.268-1.918,0.48-4.104-1.705-4.104
	c-0.64-0.053-1.278,0.213-1.813,0.64c-0.48,0.426-0.8,1.066-0.8,1.706L91.574,25.158z"/>
<path fill="#FFFFFF" d="M113.481,18.549l3.519-7.143h7.036l-6.29,10.82l3.145,11.513h-7.248l-1.279-7.144l-3.625,7.196h-7.249
	l6.557-11.141l-2.984-11.193h6.982L113.481,18.549z"/>
</svg>
